<svg xmlns="http://www.w3.org/2000/svg" width="48" height="48.002" viewBox="0 0 48 48.002">
    <defs>
        <style>
            .cls-1{fill:#71b7a9}.cls-2{fill:#cef5f3}
        </style>
    </defs>
    <g id="Group_19205" data-name="Group 19205" transform="translate(-513 -767)">
        <g id="Group_16804" data-name="Group 16804" transform="translate(513 767)">
            <path id="Path_29079" d="M17.746 38.4l-7.16 3.908a6.434 6.434 0 0 0-1.149.818 23.968 23.968 0 0 0 30.811.08 6.351 6.351 0 0 0-1.262-.846l-7.667-3.835a2.926 2.926 0 0 1-1.619-2.616V32.9a11.586 11.586 0 0 0 .725-.933 17.658 17.658 0 0 0 2.383-4.806 2.409 2.409 0 0 0 1.708-2.292v-3.215a2.4 2.4 0 0 0-.8-1.78v-4.645S34.67 8 24.888 8s-8.828 7.228-8.828 7.228v4.645a2.4 2.4 0 0 0-.8 1.78v3.213a2.409 2.409 0 0 0 1.11 2.021 15.948 15.948 0 0 0 2.9 6.01v2.936a2.929 2.929 0 0 1-1.524 2.567z" class="cls-1" data-name="Path 29079" transform="translate(-.886 -.772)"/>
            <g id="Group_16803" data-name="Group 16803">
                <path id="Path_29080" d="M24.411 0A23.985 23.985 0 0 0 8.557 42.349a6.377 6.377 0 0 1 1.138-.81l7.161-3.906a2.925 2.925 0 0 0 1.524-2.568v-2.934a15.921 15.921 0 0 1-2.9-6.007 2.409 2.409 0 0 1-1.11-2.021v-3.211a2.4 2.4 0 0 1 .8-1.78V14.47S14.216 7.245 24 7.245s8.831 7.224 8.831 7.224v4.642a2.394 2.394 0 0 1 .8 1.78V24.1a2.408 2.408 0 0 1-1.708 2.291 17.644 17.644 0 0 1-2.384 4.8 11.581 11.581 0 0 1-.725.933v3.009a2.923 2.923 0 0 0 1.617 2.616l7.669 3.84a6.385 6.385 0 0 1 1.259.844A23.994 23.994 0 0 0 24.411 0z" class="cls-2" data-name="Path 29080"/>
            </g>
        </g>
    </g>
</svg>
