<svg xmlns="http://www.w3.org/2000/svg" width="24" height="24" viewBox="0 0 24 24">
    <defs>
        <style>
            .cls-1{fill:none}.cls-2{fill:#4c7384;stroke:#4c7384;stroke-width:.4px}
        </style>
    </defs>
    <g id="ic_produk">
        <path id="Bg" d="M0 0h24v24H0z" class="cls-1"/>
        <g id="Group_16589" data-name="Group 16589" transform="translate(-11.602 1)">
            <path id="Path_28576" d="M33.188 160.787h-.9v-13.033a1.106 1.106 0 0 0-1.109-1.1h-2.027a1.106 1.106 0 0 0-1.109 1.1v13.033h-2.3v-7.128a1.106 1.106 0 0 0-1.109-1.1h-2.02a1.106 1.106 0 0 0-1.109 1.1v7.128h-2.3V157.1A1.106 1.106 0 0 0 18.1 156h-2.024a1.106 1.106 0 0 0-1.109 1.1v3.692h-.954a.409.409 0 1 0 0 .818h19.175a.409.409 0 1 0 0-.818zm-17.4 0V157.1a.283.283 0 0 1 .284-.282H18.1a.283.283 0 0 1 .284.282v3.692zm6.538 0v-7.128a.283.283 0 0 1 .284-.282h2.022a.283.283 0 0 1 .284.282v7.128zm6.538 0v-13.033a.283.283 0 0 1 .284-.282h2.022a.283.283 0 0 1 .284.282v13.033z" class="cls-2" data-name="Path 28576" transform="translate(0 -140.483)"/>
            <path id="Path_28577" d="M99.767 11.715a.419.419 0 0 0 .3-.123l7.266-7.266 1.567 1.568a.421.421 0 0 0 .6 0l4.457-4.457v1.422a.421.421 0 0 0 .842 0V.463v-.02a.419.419 0 0 0-.448-.443h-2.566a.421.421 0 1 0 0 .842h1.572L109.2 5l-1.569-1.569a.421.421 0 0 0-.6 0L99.469 11a.421.421 0 0 0 .3.718z" class="cls-2" data-name="Path 28577" transform="translate(-82.536)"/>
        </g>
    </g>
</svg>
