<svg xmlns="http://www.w3.org/2000/svg" id="ic_akunActive" width="24" height="24" viewBox="0 0 24 24">
    <defs>
        <style>
            .cls-1{fill:#4c7384;stroke:#7c7c7c;stroke-width:.2px}.cls-2{fill:none}.cls-3{clip-path:url(#clip-path)}
        </style>
        <clipPath id="clip-path">
            <path id="Rectangle_5142" d="M0 0h20.013v23.604H0z" class="cls-1" data-name="Rectangle 5142"/>
        </clipPath>
    </defs>
    <path id="Rectangle_7687" d="M0 0h24v24H0z" class="cls-2" data-name="Rectangle 7687"/>
    <g id="Group_12137" data-name="Group 12137" transform="translate(2)">
        <g id="Group_12136" data-name="Group 12136">
            <g id="Group_12134" class="cls-3" data-name="Group 12134">
                <path id="Path_20105" d="M85.82 13.173h.158a4.489 4.489 0 0 0 3.433-1.485c1.875-2.112 1.564-5.734 1.528-6.081a4.988 4.988 0 0 0-2.362-4.419A5.416 5.416 0 0 0 85.96.5h-.085a5.361 5.361 0 0 0-2.617.67 4.957 4.957 0 0 0-2.392 4.437c-.037.347-.347 3.969 1.528 6.081a4.466 4.466 0 0 0 3.427 1.485zm-3.658-7.445c0-.012.006-.03.006-.037.158-3.494 2.642-3.865 3.7-3.865h.061c1.315.03 3.549.566 3.7 3.865 0 .012 0 .03.006.037.006.037.347 3.348-1.205 5.088a3.171 3.171 0 0 1-2.508 1.041h-.049a3.2 3.2 0 0 1-2.5-1.041c-1.546-1.735-1.217-5.058-1.211-5.088zm0 0" class="cls-1" data-name="Path 20105" transform="translate(-75.905 -.47)"/>
            </g>
            <g id="Group_12135" class="cls-3" data-name="Group 12135">
                <path id="Path_20106" d="M20.066 214.041v-.012c0-.037-.006-.079-.006-.122-.03-.962-.091-3.22-2.2-3.938a.143.143 0 0 0-.049-.012 14.115 14.115 0 0 1-4.042-1.838.655.655 0 0 0-.755 1.071 15.216 15.216 0 0 0 4.443 2.033c1.132.4 1.26 1.619 1.3 2.727a.776.776 0 0 0 .006.122 8.58 8.58 0 0 1-.1 1.5 17.905 17.905 0 0 1-8.582 2 17.962 17.962 0 0 1-8.588-2 8.58 8.58 0 0 1-.1-1.5c0-.037.006-.079.006-.122.037-1.108.158-2.325 1.3-2.727a15.125 15.125 0 0 0 4.443-2.033.655.655 0 1 0-.755-1.071 14.018 14.018 0 0 1-4.042 1.838.188.188 0 0 1-.049.012C.169 210.687.1 212.945.078 213.9a.776.776 0 0 1-.006.122v.012a7.289 7.289 0 0 0 .25 2.2.6.6 0 0 0 .256.3 18.43 18.43 0 0 0 9.507 2.325 18.5 18.5 0 0 0 9.507-2.325.69.69 0 0 0 .256-.3 8.339 8.339 0 0 0 .219-2.2zm0 0" class="cls-1" data-name="Path 20106" transform="translate(-.066 -195.331)"/>
            </g>
        </g>
    </g>
</svg>
